<svg width="572" height="572" viewBox="0 0 572 572" fill="none" xmlns="http://www.w3.org/2000/svg">
<path d="M446.732 398.684C416.988 431.86 383.812 458.744 344.916 474.188C306.592 489.632 261.976 493.636 224.224 479.908C186.472 466.18 156.156 434.148 123.552 399.256C90.948 363.792 56.628 324.896 49.764 280.852C42.9 237.38 64.064 188.76 96.668 153.868C129.272 119.548 173.888 98.956 220.792 81.224C268.268 63.492 318.032 49.192 356.928 63.492C395.824 78.364 423.852 121.836 450.736 163.592C477.62 205.348 503.932 245.96 503.36 286C502.788 325.468 476.476 365.508 446.732 398.684Z" fill="#00253E"/>
</svg>
